<svg xmlns="http://www.w3.org/2000/svg" version="1.1" viewBox="-5.0 -10.0 110.0 135.0">
 <path d="m24.219 87.496c-0.57031 0-1.1523-0.125-1.7344-0.375-1.2305-0.52734-2.2891-1.5234-3.2266-2.4023-0.11328-0.10938-0.22266-0.21094-0.33594-0.3125-0.26562-0.24219-0.40625-0.60156-0.37109-0.96094 0.03125-0.35937 0.23047-0.6875 0.53125-0.88281 6.25-4.0195 8.4219-18.117 8.4922-18.57 0.72656-5.8438 2.8438-12.184 6.2852-18.828 2.8477-5.4922 6-10.035 8.1445-12.875 1.1719-1.5469 1.5039-3.5703 0.89453-5.4062-1.5547-4.6484-2.8203-8.8594-2.6602-13.258 0.015625-0.42578 0.25781-0.80469 0.63281-1s0.82812-0.17188 1.1797 0.0625l5.9961 3.9727c1.4062 0.92969 3.2227 0.92969 4.625 0l6.0078-3.9648c0.35547-0.23437 0.8125-0.25781 1.1875-0.0625 0.375 0.19531 0.62109 0.58203 0.62891 1.0078 0.13281 4.4102-1.1875 8.7852-2.6641 13.25-0.60547 1.832-0.27344 3.8516 0.89453 5.3984 2.1445 2.8438 5.2969 7.3828 8.1484 12.875 3.4453 6.6562 5.5664 12.992 6.2891 18.844 0 0.015626 0.003907 0.023438 0.003907 0.039063 0.015625 0.15234 1.4648 15.117 7.7539 19.164 0.30469 0.19531 0.50391 0.52344 0.53125 0.87891 0.035156 0.35938-0.10156 0.71094-0.36719 0.96094-2.9258 2.7344-5.3516 1.9141-7.1211 1.3203-1.4375-0.48438-2.1797-0.6875-3.1641 0.03125-1.6875 1.4531-4.2109 1.4414-5.8906-0.035156 0 0-0.003906-0.003907-0.003906-0.003907-0.80469-0.70312-2.0117-0.70312-2.8164 0 0 0-0.003906 0.003907-0.003906 0.003907-1.6875 1.4883-4.2383 1.4883-5.9297 0 0 0-0.003906-0.003907-0.003906-0.003907-0.80469-0.70312-2.0117-0.70312-2.8164 0l-0.003907 0.003907c-1.6875 1.4883-4.2383 1.4883-5.9297 0 0 0-0.003906-0.003907-0.003906-0.003907-0.80469-0.70312-2.0156-0.70312-2.8203 0.003907-0.007813 0.003906-0.015625 0.015624-0.023437 0.019531-1.6875 1.4688-4.2227 1.4648-5.9023-0.019531 0 0-0.003906-0.003907-0.003906-0.003907-0.80078-0.69922-2-0.70312-2.8086-0.007812-0.003906 0.003906-0.007813 0.007812-0.019532 0.015625-0.82031 0.72266-1.8711 1.1172-2.9648 1.1172s-2.1445-0.39453-2.9648-1.1172c-0.80469-0.71094-2.0234-0.71094-2.8281 0l-0.015625 0.015625c-0.87891 0.73047-1.8359 1.1094-2.8281 1.1094zm-2.6719-3.8594c1.8281 1.6094 2.7891 1.957 3.9688 0.95703 1.6875-1.4805 4.2344-1.4805 5.918 0.007812 0.39062 0.34766 0.89453 0.53125 1.4141 0.53125 0.51172 0 1.0117-0.1875 1.3984-0.51562 0.003906-0.003907 0.007812-0.007813 0.019531-0.015626 1.6875-1.4883 4.2383-1.4883 5.9297 0l0.003907 0.003907c0.80469 0.70312 2.0156 0.70312 2.8203-0.003907 0.007813-0.003906 0.015625-0.015624 0.023438-0.019531 1.6875-1.4688 4.2227-1.4648 5.9023 0.019531l0.003907 0.003907c0.80469 0.70312 2.0117 0.70312 2.8164 0 0 0 0.003906-0.003907 0.003906-0.003907 1.6875-1.4883 4.2383-1.4883 5.9297 0 2.6992 2.2031 4.1836-3.5 8.7539 0 0.83594 0.73828 2.0938 0.69922 2.8984-0.058593 2.0312-1.5195 3.8711-0.89844 5.3477-0.39844 1.3125 0.44531 2.3398 0.78906 3.6484 0.042969-2.4844-2.2344-4.4727-6.0469-5.9219-11.363-1.1953-4.3945-1.5781-8.207-1.6055-8.5508-1.6211-13.031-10.312-25.723-13.98-30.578-1.6328-2.1641-2.1016-4.9844-1.25-7.5469 1.2031-3.625 2.2266-6.957 2.4922-10.266l-4.1328 2.7305c-2.1914 1.4453-5.0195 1.4453-7.2109 0l-4.1328-2.7305c0.25391 3.293 1.2852 6.6328 2.4961 10.258 0.85547 2.5703 0.39063 5.3945-1.2461 7.5586-3.668 4.8516-12.363 17.555-13.98 30.59 0 0.007813 0 0.015626-0.003906 0.023438-0.023438 0.15625-0.57031 3.8984-1.9844 8.2422-1.6602 5.1797-3.793 8.8945-6.3398 11.082z"/>
 <path d="m36.48 80.918c-0.29297 0-0.58984-0.11328-0.81641-0.33203-0.46484-0.44922-0.47266-1.1914-0.019531-1.6562 0.17578-0.17969 0.82031-1.0508 1.6094-4.5938 0.44922-2.0078 0.71875-3.8516 0.71875-3.8711 0-0.007813 0-0.015625 0.003906-0.023438 0.60547-3.7148 1.6055-7.457 2.9688-11.113 0.22266-0.60547 0.90234-0.91406 1.5078-0.6875 0.60547 0.22266 0.91406 0.90234 0.6875 1.5078-1.3086 3.5117-2.2695 7.1016-2.8516 10.66-0.023437 0.17969-0.29297 1.9961-0.74609 4.0273-0.89844 4.0156-1.6992 5.1914-2.2266 5.7266-0.22656 0.23828-0.52734 0.35547-0.83594 0.35547z"/>
 <path d="m68.297 76.203c-0.3125 0-0.62891-0.125-0.85938-0.375-0.51172-0.55078-1.2852-1.7461-2.0859-5.7812-0.40625-2.0469-0.62891-3.8672-0.64844-4.043-0.80469-5.8047-2.4805-10.688-3.7383-13.77-0.24219-0.60156 0.039062-1.2852 0.64062-1.5273 0.60156-0.24219 1.2852 0.039063 1.5273 0.64062 1.3125 3.2031 3.0625 8.2969 3.8984 14.344 0 0.007813 0 0.015625 0.003906 0.023438 0 0.019531 0.22266 1.8711 0.625 3.8867 0.70703 3.5586 1.3281 4.4453 1.5039 4.6289 0.4375 0.47266 0.41406 1.2148-0.0625 1.6562-0.23437 0.21094-0.51562 0.31641-0.80469 0.31641z"/>
 <path d="m60.641 49.824c-0.43359 0-0.84766-0.23828-1.0547-0.65625-0.48047-0.97656-0.78906-1.5156-0.79688-1.5195-0.32031-0.5625-0.13672-1.2734 0.42578-1.6016s1.2734-0.13672 1.6016 0.42578c0.015625 0.023438 0.35156 0.60938 0.875 1.6641 0.28125 0.58203 0.042969 1.2852-0.53906 1.5664-0.16797 0.082031-0.33984 0.12109-0.51172 0.12109z"/>
 <path d="m29.719 81.281c-0.23438 0-0.46875-0.070312-0.67188-0.21484-0.52734-0.37109-0.65625-1.1016-0.28125-1.6328 1.0781-1.5312 2.2656-4.4219 3.3398-8.1328 0.42969-1.4922 0.78516-2.9922 1.0547-4.4688 0.91797-5.0039 2.3359-10.203 4.2148-15.465 0.21875-0.60938 0.89062-0.92969 1.5-0.70703 0.60938 0.21875 0.92969 0.89062 0.70703 1.5-1.8359 5.1367-3.2227 10.215-4.1172 15.094-0.28125 1.5469-0.66016 3.1289-1.1094 4.6953-0.8125 2.7969-2.1016 6.6016-3.6719 8.832-0.23438 0.32031-0.60156 0.5-0.96484 0.5z"/>
 <path d="m62.305 79.203c-0.53906 0-1.0195-0.37109-1.1406-0.91797-1.7461-7.8906-2.375-13.961-2.3828-14.02-0.0625-0.64453 0.40625-1.2188 1.0508-1.2852 0.64453-0.0625 1.2188 0.40625 1.2852 1.0508 0.003906 0.058594 0.62109 6 2.3398 13.75 0.14062 0.62891-0.25781 1.2578-0.89062 1.3984-0.09375 0.015624-0.17969 0.023437-0.26172 0.023437z"/>
<text x="0.0" y="117.5" font-size="5.0" font-weight="bold" font-family="Arbeit Regular, Helvetica, Arial-Unicode, Arial, Sans-serif" fill="#000000">Created by Iconbunny</text><text x="0.0" y="122.5" font-size="5.0" font-weight="bold" font-family="Arbeit Regular, Helvetica, Arial-Unicode, Arial, Sans-serif" fill="#000000">from Noun Project</text></svg>