<?xml version="1.0" encoding="UTF-8"?>
<svg width="1200pt" height="1200pt" version="1.1" viewBox="0 0 1200 1200" xmlns="http://www.w3.org/2000/svg">
 <path d="m1162.3 515.63c0-62.016-50.484-112.5-112.5-112.5v-93.75c0-134.39-109.36-243.74-243.74-243.74h-206.26c-60.75-0.046875-236.81 0.046875-300 0-144.74 0-262.5 117.75-262.5 262.5 0.60938 140.06-0.46875 391.78 0 525 0 155.06 126.19 281.26 281.26 281.26h745.92c52.031 0.14062 97.734-41.109 97.359-91.453 2.625-0.89062-0.84375-525.71 0.51562-527.29zm-543.74-412.5h187.5c113.72 0 206.26 92.531 206.26 206.26v151.92c-43.172-68.625-119.39-114.42-206.26-114.42h-187.5zm-93.75 0h56.25v243.74h-56.25zm-450 225c0-124.08 100.92-225 225-225h187.5v243.74h-168.74c-104.2 0-195.14 57.094-243.74 141.52zm989.68 768.74h-745.92c-134.39 0-243.74-109.36-243.74-243.74v-225c0-134.39 109.36-243.74 243.74-243.74 141.71-0.09375 346.78 0.046875 487.5 0 113.72 0 206.26 92.531 206.26 206.26v150c0 113.72-92.531 206.26-206.26 206.26h-468.74c-70.5 1.2656-132.47-60.609-131.26-131.26v-150c-1.1719-70.594 60.656-132.52 131.26-131.26h393.74c173.76 6.5625 173.95 255.89 0 262.5h-337.5c-74.109-1.9219-74.203-110.53 0-112.5h253.69c4.7812-0.046875 9.9375 0 14.109-2.4844 4.2188 15.141 13.547 38.531 32.203 39.984 16.031 0.5625 25.219-20.859 13.266-32.016-13.359-13.359-13.359-35.109 0-48.469 7.3125-7.3125 7.3125-19.172 0-26.531-21.938-19.078-41.438 15.75-45.281 34.031-4.2656-2.5312-9.3281-2.3906-14.25-2.0156h-253.69c-123.98 4.3594-124.13 183.1 0 187.5h337.5c223.78-9.2344 223.87-328.22 0-337.5-56.016 0.046875-332.02-0.046875-393.74 0-90.844-1.5938-170.29 77.906-168.74 168.74v150c-1.5 90.891 77.953 170.34 168.74 168.74h731.26c76.406 2.9062 73.031 111.75-4.0781 112.5zm60.328-130.97c-16.125-12.141-35.812-19.031-56.25-19.031h-133.18c68.625-43.172 114.42-119.39 114.42-206.26v-300c41.344 0 75 33.656 75 75z" fill="#780003"/>
</svg>
