<?xml version="1.0" encoding="UTF-8"?>
<svg width="1200pt" height="1200pt" version="1.1" viewBox="0 0 1200 1200" xmlns="http://www.w3.org/2000/svg">
 <path d="m1132 232.2c-6.1953-2.2617-13.059 0.90234-15.359 7.082l-19.559 53.762c-126.6 0-191.16 32.281-253.56 63.359-62.406 31.078-122.52 60.836-244.68 60.836-122.16 0-181.8-29.637-244.68-60.84-62.883-31.199-126.12-62.52-251.16-63.238l-18.961-53.879c-2.2852-6.2305-9.1914-9.4258-15.422-7.1406-6.2266 2.2852-9.4258 9.1914-7.1367 15.418l220.56 607.68c1.7188 4.7539 6.2266 7.918 11.281 7.9219h613.44c5.0547-0.003906 9.5625-3.168 11.281-7.9219l221.16-607.68c2.25-6.2266-0.97266-13.102-7.1992-15.359zm-233.64 606.96h-596.64l-189.96-521.88c113.4 2.0391 171 30.48 231.72 60 62.641 31.078 127.44 63.359 255.36 63.359 127.92 0 193.2-31.68 255.36-62.762 62.16-31.078 119.04-59.039 234.12-60.719z" fill="#780003"/>
 <path d="m909.48 891.84h-618.96c-6.625 0-12 5.3711-12 12s5.375 12 12 12h618.96c6.625 0 12-5.3711 12-12s-5.375-12-12-12z" fill="#780003"/>
 <path d="m909.48 944.52h-618.96c-6.625 0-12 5.375-12 12 0 6.6289 5.375 12 12 12h618.96c6.625 0 12-5.3711 12-12 0-6.625-5.375-12-12-12z" fill="#780003"/>
</svg>
