<?xml version="1.0" encoding="UTF-8"?>
<svg width="1200pt" height="1200pt" version="1.1" viewBox="0 0 1200 1200" xmlns="http://www.w3.org/2000/svg">
 <path d="m500 150c0-13.809 11.191-25 25-25h150c13.805 0 25 11.191 25 25 0 19.555 24.98 94.223 159.84 152.02 7.625 3.2656 13.137 10.102 14.707 18.25 1.5625 8.1445-1.0039 16.539-6.875 22.402-24.98 24.984-58.961 59.254-78.75 110.14-19.441 49.988-26.066 118.61 9.4805 213.41 38.77 103.39 51.914 189.7 51.828 256.32-0.078125 65.867-13.125 114.21-28.793 140.32-3.0703 5.1211-7.8711 8.9688-13.535 10.855-78.891 26.301-169.7 32.586-246.45 29.391-38.539-1.6055-74.059-5.625-103.4-10.926-28.703-5.1797-53.449-11.926-69.238-19.82-6.2695-3.1328-10.934-8.7539-12.859-15.488-25.98-90.938-26.391-157.69-12.867-218.55 9.8047-44.113 27.203-85.344 45.398-128.47 6.0938-14.438 12.277-29.09 18.293-44.137 4.6445-11.605 17.148-18 29.277-14.969 30.188 7.5508 118.09 18.93 214.04-0.26172 13.535-2.7031 26.707 6.0742 29.414 19.609 2.7109 13.543-6.0703 26.711-19.609 29.422-87.68 17.535-169.24 11.809-214.57 4.1133-4.168 10.098-8.2422 19.758-12.18 29.102-17.598 41.73-32.516 77.109-41.254 116.45-10.945 49.25-11.828 104.51 8.9492 182.45 10.516 3.6992 26.039 7.7344 46.086 11.355 26.906 4.8594 60.137 8.6484 96.598 10.168 70.016 2.9219 150.02-2.6289 219.05-23.82 8.4805-18.836 17.582-54.508 17.645-106.84 0.074219-60.035-11.781-140.39-48.645-238.7-39.449-105.21-33.574-186.58-9.2656-249.09 17.102-43.969 42.887-77.301 65.34-101.88-99.105-50.398-142.29-113.12-154.12-157.81h-108.66c-3.9648 10.562-9.8203 21.086-16.113 30.75-12.148 18.652-29.062 38.797-48.938 57.898-28.355 27.254-64.441 54.008-103.57 71.035 46.453 47.043 98.746 135.14 98.746 265.32 0 13.805-11.195 25-25 25-13.809 0-25-11.195-25-25 0-151.09-78.613-233.01-112.86-253.56-8.8555-5.3164-13.531-15.527-11.77-25.703 1.7617-10.18 9.6016-18.223 19.73-20.25 43.5-8.6992 89.367-38.562 125.08-72.883 17.625-16.938 31.957-34.191 41.688-49.133 10.543-16.195 13.137-25.816 13.137-28.469z" fill="#780003" fill-rule="evenodd"/>
</svg>
