<?xml version="1.0" encoding="UTF-8"?>
<svg width="1200pt" height="1200pt" version="1.1" viewBox="0 0 1200 1200" xmlns="http://www.w3.org/2000/svg">
 <path d="m1133.1 686.39c-47.719 8.8125-96 14.297-144.37 16.922 3.0938-23.438 5.5312-47.016 6.4688-70.5 0.89062-21.516 0.89062-43.406 0-65.062-0.32812-8.0156-5.7188-14.953-13.453-17.203l-216.14-63.516c-5.4844-1.5938-11.344-0.65625-16.031 2.625s-7.5938 8.4844-7.9688 14.156c-2.5312 38.672-10.688 76.547-24.234 112.55-8.2031 21.844-18.844 42.797-30.938 62.859-8.9062-1.9219-17.906-3.7031-26.766-5.8125-5.1562-1.2656-9.6094-4.9688-12.188-10.125-48.984-99.422-113.53-189.1-191.81-266.44-97.266-96.141-211.92-170.16-340.78-219.89-25.875-10.031-54.984 0.1875-68.953 23.719l-0.09375 0.1875c-0.09375 0.14062-0.1875 0.28125-0.28125 0.46875-7.9688 13.453-10.125 29.156-6.0938 44.156 2.0625 7.5938 5.5781 14.531 10.312 20.484 19.688 74.109 34.031 150 42.562 225.79 26.203 233.63-7.3594 436.26-23.016 512.53-1.125 5.5312 0.28125 11.25 3.8438 15.609s8.9062 6.8906 14.531 6.8906h201.74c6.4688 0 12.469-3.3281 15.891-8.8125s3.7969-12.328 0.98438-18.141c-40.781-84.141-66.328-173.63-75.938-265.97-10.875-104.81-0.09375-213.1 30.75-315 28.031 25.078 54.891 51.469 80.156 79.453 155.06 171.56 222.47 359.06 251.72 486.14 2.7188 11.812 11.719 20.766 23.438 23.438 55.875 12.609 112.22 18.938 168.47 18.938 43.078 0 86.109-3.7031 128.86-11.109 71.062-12.328 140.16-34.875 205.26-67.031 7.0312-3.4688 12.516-9.4688 15.328-16.781 10.266-26.625 17.812-54.375 22.5-82.5 2.8125-16.969 4.125-34.031 4.875-51.141 0.14062-1.0781 0.14062-2.1562 0.09375-3.2344 1.0312-31.219-1.0312-62.531-6.9844-93.703-1.9219-10.125-11.578-16.781-21.844-14.906zm-380.63-56.812c12.141-32.25 20.344-65.812 24.422-100.12l181.26 53.25c0.375 16.219 0.23437 32.484-0.42188 48.562-1.0312 24.469-3.5625 49.031-6.9844 73.359-28.875 0.60938-57.75 0.51562-86.531-1.0781-46.359-2.5312-92.719-8.25-138.56-16.5 10.312-18.516 19.359-37.688 26.812-57.469zm-641.95 359.72c3.375-18 7.125-40.125 10.781-65.484h113.2c7.6406 22.125 16.172 43.969 25.688 65.484zm82.641-251.48c5.25 50.438 15.188 100.08 29.391 148.5h-96.328c12.422-101.77 20.812-243.47 3.375-398.72-7.125-63.609-18.422-127.31-33.281-190.03 47.203 28.266 91.875 59.906 133.87 94.688-36.047 111.23-49.031 230.34-37.078 345.56zm907.22 178.31c-61.266 30-126.14 51.047-192.89 62.625-92.391 16.031-186.14 13.828-278.72-6.5625-7.5-31.969-17.344-67.594-30.188-105.66 20.812 3.4688 41.625 6.5625 62.391 8.8125 0.70312 0.09375 1.3594 0.09375 2.0625 0.09375 9.4219 0 17.578-7.125 18.609-16.734 1.125-10.312-6.3281-19.547-16.594-20.672-27-2.9062-54.188-7.125-81.047-12.188-41.531-109.36-108-234.61-214.78-352.74-32.625-36.094-67.594-69.75-104.58-101.16l-0.70312-0.5625c-55.219-46.781-114.98-88.359-179.02-123.98-4.5469-2.5312-7.8281-6.7031-9.1875-11.766-1.4062-5.1562-0.65625-10.594 2.1094-15.281l-16.125-9.5625 16.219 9.375c4.875-8.2031 14.766-11.719 23.484-8.3438 124.03 47.906 234.32 119.06 327.89 211.6 75.281 74.438 137.39 160.69 184.55 256.36 7.5 15.188 20.953 26.109 36.984 30 13.453 3.2812 27.047 6.0938 40.641 8.8594 0.60938 0.14063 1.2188 0.32813 1.8281 0.375 55.688 11.297 112.27 18.75 168.84 21.891 33.891 1.875 67.922 1.8281 101.91 0.75 0.046875 0 0.09375 0.046874 0.14062 0.046874 1.0312 0.1875 2.0156 0.23438 3.0469 0.23438 0.89062 0 1.6875-0.32813 2.5781-0.46875 50.672-1.875 101.3-6.6094 151.36-15 2.6719 18.609 3.8438 37.312 3.7969 55.875-74.953 27.188-152.53 45.844-230.95 54.938-38.438 4.4062-77.531 6.6562-116.16 6.7031-10.359 0-18.75 8.4375-18.75 18.75 0 10.359 8.3906 18.75 18.75 18.75 40.031-0.046874 80.531-2.3906 120.47-6.9844 76.031-8.8594 151.22-26.531 224.21-51.75-0.75 6.7969-1.4531 13.594-2.5781 20.391-4.0781 24.797-10.688 49.266-19.594 72.844z" fill="#780003"/>
</svg>
