<?xml version="1.0" encoding="UTF-8"?>
<svg width="1200pt" height="1200pt" version="1.1" viewBox="0 0 1200 1200" xmlns="http://www.w3.org/2000/svg">
 <path d="m922.87 277.13c20.297 20.344 20.344 53.109 0 73.641-6.0938 6.1406-16.031 6.1406-22.172 0-6.1875-6.1406-6.1875-16.078 0-22.219 8.0625-8.0156 8.0625-21.234 0-29.25-6.1875-6.0938-6.1875-16.031 0-22.172 6.0938-6.1406 16.031-6.1406 22.172 0zm12.234 85.875c27.047-27.047 27.047-71.062 0-98.109-27.094-27.094-70.922-27.141-98.062 0-27.047 27.047-27.047 71.062 0 98.109 27.141 27.141 70.969 27.094 98.062 0zm-427.6 329.48 296.06-320.68c6.6562 9.5625 15.094 17.953 24.656 24.609zm449.86-449.81c-39.609-39.375-103.22-39.328-142.6 0-26.578 26.625-35.109 64.594-25.688 98.578l-571.69 619.22c-9.375 10.078-2.0625 26.344 11.438 26.344 3.8906 0 7.6875-1.4062 10.688-4.1719l619.18-571.69c35.109 9.8438 72.656 0.23437 98.672-25.781 39.281-39.281 39.281-103.22 0-142.5z" fill="#780003" fill-rule="evenodd"/>
</svg>
