<?xml version="1.0" encoding="UTF-8"?>
<svg width="1200pt" height="1200pt" version="1.1" viewBox="0 0 1200 1200" xmlns="http://www.w3.org/2000/svg">
 <path d="m1130.8 444.56c-183.7-132.09-399.89-212.62-625.27-232.88-8.2031-0.79688-15.281 3.9375-18.047 11.367l-41.297 110.91c-1.6172 4.3594-1.4531 9.1875 0.49219 13.43s5.4844 7.5234 9.8438 9.1641l26.555 9.8906-28.43 76.312c-3.375 9.0938 1.2422 19.219 10.336 22.617 2.0156 0.72656 4.1016 1.1016 6.1406 1.1016 7.125 0 13.828-4.3594 16.477-11.438l28.43-76.336 20.109 7.4766-28.43 76.336c-3.375 9.0938 1.2422 19.195 10.359 22.594 2.0156 0.72656 4.0781 1.1016 6.1172 1.1016 7.125 0 13.828-4.3594 16.477-11.438l28.406-76.312 20.109 7.4766-28.43 76.336c-3.375 9.0938 1.2422 19.195 10.359 22.594 2.0156 0.72656 4.0781 1.1016 6.1172 1.1016 7.125 0 13.828-4.3594 16.477-11.438l28.406-76.312 20.109 7.5-28.43 76.336c-3.375 9.0938 1.2422 19.195 10.359 22.594 2.0156 0.72656 4.0781 1.1016 6.1172 1.1016 7.125 0 13.828-4.3594 16.477-11.438l28.43-76.312 20.109 7.5-28.43 76.312c-3.375 9.0938 1.2422 19.219 10.336 22.617 2.0156 0.72656 4.1016 1.1016 6.1406 1.1016 7.125 0 13.828-4.3594 16.477-11.438l28.43-76.312 20.086 7.4766-28.43 76.336c-3.375 9.0938 1.2422 19.195 10.359 22.594 2.0156 0.72656 4.0781 1.1016 6.1172 1.1016 7.125 0 13.828-4.3594 16.477-11.438l28.406-76.312 20.109 7.5-28.43 76.336c-3.375 9.0938 1.2422 19.195 10.359 22.594 2.0156 0.72656 4.0781 1.1016 6.1172 1.1016 7.125 0 13.828-4.3594 16.477-11.438l28.453-76.383 20.109 7.4766-28.43 76.336c-3.375 9.0938 1.2422 19.195 10.359 22.594 2.0156 0.72656 4.0781 1.1016 6.1172 1.1016 7.125 0 13.828-4.3594 16.477-11.438l28.43-76.312 20.109 7.5-28.43 76.312c-3.375 9.0938 1.2422 19.195 10.359 22.594 2.0156 0.72656 4.0781 1.1016 6.1172 1.1016 7.125 0 13.828-4.3594 16.477-11.438l28.406-76.312 20.109 7.4766-28.43 76.336c-3.375 9.0938 1.2422 19.195 10.359 22.594 2.0156 0.72656 4.0781 1.1016 6.1172 1.1016 7.125 0 13.828-4.3594 16.477-11.438l28.406-76.312 20.109 7.4766-28.43 76.336c-3.375 9.0938 1.2422 19.195 10.359 22.594 2.0156 0.72656 4.0781 1.1016 6.1172 1.1016 7.125 0 13.828-4.3594 16.477-11.438l28.43-76.312 26.578 9.8906c1.9688 0.72656 4.0547 1.1016 6.1172 1.1016 2.5078 0 4.9922-0.53906 7.3125-1.5938 4.2422-1.9453 7.5234-5.4844 9.1641-9.8438l41.297-110.91c2.7656-7.4062 0.21094-15.75-6.2109-20.367zm-61.898 102.56-583.66-217.36 30.469-81.797c209.86 21.188 411.12 96.141 583.64 217.36z" fill="#780003"/>
 <path d="m1043 790.99c-0.35156-2.2031-0.63281-4.4531-1.4531-6.5391-8.8125-22.969-26.555-35.953-39.141-43.711-21.445-13.195-45.82-19.664-76.711-20.344l-12.188-0.23438c-15.586-0.30469-31.172-0.60937-46.688-1.875-12.328-1.0078-25.008-3.0469-38.742-6.2344-19.781-4.5703-40.453-11.883-65.039-23.062l-186.3-84.445c-15.211-6.8906-39.375-19.078-54.375-27.445-15.305-8.5078-30.281-17.625-45.164-26.812-13.242-8.1797-25.219-13.242-37.711-15.938-28.57-6.1641-53.625 6.2344-63.773 31.57-4.1719 10.453-5.3906 21.844-3.6328 33.82 0.35156 2.3672 0.86719 4.7109 1.4062 7.0781l-9.2344 7.5703c-19.734 16.219-39.516 32.438-59.648 48.188-9.6328 7.5469-20.836 12.656-33.328 15.188-23.18 4.6406-40.969-2.7656-56.203-23.414-3.4688-4.7109-6.3047-9.8672-9.1641-15.023-2.1797-3.9375-4.3828-7.8516-6.75-11.648-15.141-24.211-36.023-36.797-62.062-37.43-14.039 0.023438-24.914 7.6875-29.883 19.828-6.7031 16.336-10.359 33.164-13.266 48.938-10.266 55.359-14.719 111.75-18.07 160.27-0.023437 0.25781-0.070312 3.7031-0.070312 3.9844-0.75 3.1172-0.96094 6.1875-0.70312 9.1406-1.875 2.0391-3.4453 4.3594-4.2188 7.2422-5.9531 22.594-11.062 44.883-8.2969 69 2.3438 20.461 10.547 37.664 24.281 51.094 4.5938 4.5234 10.406 8.2969 16.828 10.992 17.531 7.3594 35.953 10.523 51.656 12.656 28.641 3.8672 57.258 5.0391 84.023 5.0391 14.695 0 28.828-0.35156 42.094-0.79688 40.148-1.3359 80.508-5.1562 119.53-8.8828l25.828-2.4141c35.133-3.2344 66.703-5.9297 98.18-4.9453 26.484 0.75 53.602 4.3828 79.828 7.9219l14.461 1.9219c30.609 4.0312 58.102 7.1719 87.258 6.5625 14.531-0.375 29.062-1.2891 43.617-2.2031l18.141-1.1016c0.42188-0.023438 4.2188-0.23438 4.6406-0.28125 5.7656-0.67969 142.24-17.461 236.37-81.422 26.484-18.07 40.805-49.102 37.336-80.977l-3.1172-29.016c-0.070313-0.67969-0.42188-1.1953-0.53906-1.8047zm-932.06 30.703c3.2812-47.531 7.6406-102.7 17.555-156.23 2.4375-13.172 5.3906-27.07 10.383-39.891 12.703 1.0547 22.172 7.5469 30.469 20.789 2.0625 3.3047 3.9375 6.7031 5.8594 10.125 3.6094 6.4453 7.2422 12.891 11.578 18.773 23.297 31.57 54.867 44.438 91.477 36.984 17.906-3.6328 34.055-11.016 48.023-21.961 20.344-15.914 40.312-32.297 60.281-48.68l15.984-13.102c6.6328-5.4141 8.3906-14.25 7.2188-20.508-0.42188-2.4375-1.0078-4.8516-1.6172-7.2656-0.49219-1.9688-0.98438-3.9375-1.2891-6-0.86719-5.9062-0.375-11.062 1.5-15.727 4.8984-12.281 16.945-11.742 23.742-10.242 8.4375 1.8281 16.898 5.4609 26.625 11.484 15.375 9.4688 30.797 18.867 47.016 27.867 10.195 5.6719 24.82 13.219 38.25 19.781l-13.57 21.234c-5.2266 8.1797-2.8359 19.055 5.3438 24.258 2.9297 1.875 6.1875 2.7656 9.4453 2.7656 5.7891 0 11.484-2.8594 14.836-8.1094l16.078-25.172 15.047 6.8203-15.305 24c-5.2266 8.1797-2.8359 19.055 5.3438 24.258 2.9297 1.875 6.1875 2.7656 9.4453 2.7656 5.7891 0 11.484-2.8594 14.836-8.1094l18.023-28.242 11.719 5.3203-14.484 22.664c-5.2266 8.1797-2.8359 19.055 5.3438 24.258 2.9297 1.875 6.1875 2.7656 9.4453 2.7656 5.7891 0 11.484-2.8594 14.836-8.1094l17.203-26.93 12.398 5.625-14.203 22.266c-5.2266 8.1797-2.8359 19.055 5.3438 24.258 2.9297 1.875 6.2109 2.7656 9.4453 2.7656 5.7891 0 11.484-2.8594 14.836-8.1094l16.922-26.508 10.828 4.9219-13.57 21.234c-5.2266 8.1797-2.8359 19.055 5.3438 24.258 2.9297 1.875 6.1875 2.7656 9.4453 2.7656 5.7891 0 11.484-2.8594 14.836-8.1094l16.43-25.758c23.578 10.289 44.508 17.766 64.523 22.406 15.422 3.5625 29.719 5.8594 43.781 7.0078 16.242 1.3125 32.578 1.6406 48.891 1.9453l12.047 0.25781c24.422 0.53906 43.195 5.3438 59.086 15.141 13.266 8.1797 20.906 16.312 24.68 24.914-1.8281 8.0391-6.3047 15.773-13.711 23.672-11.766 12.586-27.094 22.594-48.234 31.43-21.703 9.0938-46.43 15.867-75.586 20.672-34.266 5.625-70.266 8.625-110.06 9.1172-54.516 0.70312-126.23 0.35156-196.64-8.7422-26.555-3.4219-53.016-7.6406-79.477-11.859-14.531-2.3438-29.086-4.6406-43.664-6.8438-31.336-4.6875-63.938-7.0547-97.289-7.0547-10.992 0-22.078 0.25781-33.211 0.77344-33.984 1.5703-68.039 1.9922-102.07 2.0391h-0.58594c-30.703 0-55.242-4.2656-77.203-13.383-6.8906-2.8594-13.547-6.2578-20.156-9.7969 0.11719-1.2656 0.14063-2.5781 0.1875-3.9375zm878.58 51.984c-86.906 59.062-219.38 75.422-223.01 75.68l-18.562 1.125c-14.109 0.89062-28.195 1.7812-42.328 2.1562-26.461 0.72656-52.641-2.4141-81.75-6.2578l-14.344-1.9219c-27.141-3.6328-55.195-7.4062-83.531-8.2266-33.445-0.84375-66.117 1.7578-102.4 5.0859l-25.922 2.4609c-38.484 3.6562-78.305 7.4297-117.38 8.7422-36.047 1.2188-78.492 1.6875-120.23-3.9375-14.109-1.8984-29.039-4.4531-42.773-10.219-2.3203-0.98438-4.3828-2.2734-5.8359-3.7031-7.9688-7.7812-12.516-17.602-13.945-29.953-1.6406-14.508 0.75-28.992 4.4531-44.438 5.1328 2.625 10.195 5.4375 15.516 7.6641 26.016 10.805 55.688 16.055 90.703 16.055h0.63281c34.547-0.046876 69.117-0.49219 103.62-2.0859 42.656-1.9922 84.281 0.023438 123.66 5.9297 14.461 2.1562 28.898 4.4766 43.359 6.7734 26.789 4.2656 53.602 8.5547 80.508 12.023 58.547 7.5234 117.54 9.2578 167.41 9.2578 11.953 0 23.391-0.09375 34.172-0.23438 41.578-0.53906 79.289-3.6797 115.31-9.5859 31.922-5.25 59.227-12.75 83.484-22.922 17.227-7.2188 31.266-15.375 43.383-24.75-3.75 5.8359-8.25 11.227-14.203 15.281z" fill="#780003"/>
</svg>
