<?xml version="1.0" encoding="UTF-8"?>
<svg width="1200pt" height="1200pt" version="1.1" viewBox="0 0 1200 1200" xmlns="http://www.w3.org/2000/svg">
 <path d="m1080 433.22c-15.609-160.78-186-237.61-265.22-264l-60-97.219c-3.6094-6-9.6094-9.6094-15.609-9.6094h-280.78c-6 0-13.219 3.6094-15.609 9.6094l-60 98.391c-80.391 27.609-247.22 104.39-262.78 262.78l-60 684c0 4.7812 1.2188 10.781 4.7812 14.391 3.6094 3.6094 8.3906 6 14.391 6h160.78c8.3906 0 16.781-6 18-15.609l54.047-269.95v267.61c0 10.781 8.3906 19.219 19.219 19.219h538.78c10.781 0 19.219-8.3906 19.219-19.219v-267.61l31.219 157.22 22.781 114c1.2188 8.3906 9.6094 15.609 18 15.609h160.78c4.7812 0 10.781-2.3906 14.391-6 3.6094-3.6094 4.7812-9.6094 4.7812-14.391zm-481.22-216-99.609-116.39h199.22zm138-104.44 42 70.781-85.219 114-68.391-54zm-276 0 110.39 129.61-67.172 55.219-85.219-114zm-361.18 987.61 7.2188-75.609h133.22l-15.609 75.609zm249.61-439.18v-168c0-10.781-8.3906-19.219-19.219-19.219-10.781 0-18 9.6094-18 19.219v165.61l-64.781 326.39h-138l48-549.61c13.219-134.39 156-202.78 231.61-229.22l96 127.22c3.6094 3.6094 7.2188 7.2188 13.219 7.2188 4.7812 1.2188 9.6094-1.2188 14.391-3.6094l69.609-55.219v817.22h-232.82zm501.56 439.18h-230.39v-813.61l64.781 51.609c3.6094 2.3906 7.2188 3.6094 12 3.6094h2.3906c4.7812-1.2188 9.6094-3.6094 13.219-7.2188l97.219-128.39c74.391 26.391 220.78 94.781 234 229.22l48 549.61h-138l-66-326.44v-165.56c0-10.781-8.3906-19.219-19.219-19.219-10.781 0-19.219 8.3906-19.219 19.219v168l0.046875 439.18zm126 0-15.609-75.609h133.22l7.2188 75.609z" fill="#780003"/>
 <path d="m792 468h-112.78c-10.781 0-19.219 8.3906-19.219 19.219v110.39c0 6 2.3906 12 7.2188 15.609l56.391 40.781c3.6094 2.3906 7.2188 3.6094 10.781 3.6094 3.6094 0 7.2188-1.2188 10.781-3.6094l56.391-40.781c4.7812-3.6094 7.2188-9.6094 7.2188-15.609v-110.39c2.4375-10.828-6-19.219-16.781-19.219zm-19.219 120-37.219 27.609-38.344-27.609v-81.609h75.609z" fill="#780003"/>
</svg>
