<?xml version="1.0" encoding="UTF-8"?>
<svg width="1200pt" height="1200pt" version="1.1" viewBox="0 0 1200 1200" xmlns="http://www.w3.org/2000/svg">
 <path d="m1155.8 721.87h-26.156l-8.8594-31.031c-12.703-44.438-50.484-77.953-96.234-85.312-54.328-8.7656-148.36-28.359-243.14-68.906l1.9688-3.0469c6.0469-9.375 3.3281-21.891-6.0938-27.938-9.375-6.0469-21.891-3.3281-27.938 6.0938l-5.0625 7.875c-13.594-6.6562-27.094-13.781-40.359-21.375-2.5312-1.4531-4.9688-2.9062-7.4531-4.3594l3.6094-4.5c6.9844-8.7188 5.5781-21.422-3.1406-28.406s-21.422-5.5781-28.406 3.1406l-6.375 7.9688c-14.156-9.6562-27.562-19.688-40.172-30.094l2.3906-2.2969c8.0156-7.7812 8.2031-20.578 0.42187-28.594s-20.578-8.2031-28.594-0.42188l-4.3125 4.2188c-11.156-10.922-21.516-22.266-31.125-33.891l0.42188-0.23438c9.5156-5.8594 12.422-18.328 6.5625-27.797-5.8594-9.5156-18.328-12.422-27.797-6.5625l-3.4219 2.1094c-8.0156-12.047-15.281-24.422-21.844-37.125 10.078-4.4062 14.812-16.078 10.594-26.25-4.2656-10.312-16.125-15.188-26.438-10.922l-0.70313 0.28125c-12.188-31.641-20.203-65.062-23.906-100.36-1.0781-10.266-9.75-18.094-20.109-18.094l-326.9-0.14062c-11.156 0-20.203 9.0469-20.203 20.203v104.06c0 90.328-10.922 144-23.578 206.16-6.4688 31.688-13.266 65.109-18.984 105.84v0.14062c-7.2188 51.656-12.703 114.98-13.453 201.24l-6.7969 0.046875c-11.156 0-20.203 9.0469-20.203 20.203v93.188c0 61.031 49.641 110.72 110.72 110.72h258.28c8.0625 0 15.328-4.7812 18.516-12.141l11.344-26.016 2.7656 1.2656c91.406 41.625 191.48 63.281 291.47 63.281 11.719 0 23.438-0.28125 35.156-0.89062 138.98-7.0781 258.79-39.891 334.82-66.141 53.203-18.375 88.922-68.531 88.922-124.78v-110.2c0-11.156-9.0469-20.203-20.203-20.203zm-73.922-19.922 7.4062 25.922-222.37 59.344c-113.39 30.281-229.92 43.5-346.82 39.422 46.406-48.516 110.02-77.766 158.86-94.406 62.016-21.141 114.38-27.094 118.55-27.562 0.14062 0 0.23438-0.046875 0.28125-0.046875 0.14062 0 0.32812-0.046875 0.46875-0.046875 0.32812-0.046875 0.70312-0.09375 1.0312-0.14062 0.23438-0.046875 0.42188-0.09375 0.65625-0.14062 0.32812-0.046875 0.60938-0.14062 0.9375-0.1875 1.0312-0.28125 2.0625-0.60938 3.0469-1.0781 0.046875-0.046875 0.09375-0.046875 0.1875-0.09375 0.42188-0.1875 0.84375-0.42188 1.2656-0.65625l0.28125-0.14062c0.375-0.23438 0.75-0.42188 1.125-0.65625 0.09375-0.09375 0.23438-0.14062 0.32812-0.23438l0.98438-0.70312c0.14062-0.09375 0.23438-0.1875 0.375-0.32812l0.84375-0.70312c0.14062-0.14062 0.28125-0.23438 0.42188-0.375 0.23438-0.23438 0.51562-0.46875 0.75-0.75l0.42188-0.42188c0.23438-0.23438 0.42188-0.51562 0.65625-0.79688 0.14062-0.14062 0.23438-0.32812 0.375-0.46875 0.1875-0.28125 0.42188-0.5625 0.60938-0.84375 0.09375-0.14062 0.23438-0.32812 0.32812-0.46875l0.5625-0.98438c0.09375-0.14062 0.14062-0.28125 0.23438-0.42188 0.23438-0.42188 0.42188-0.79688 0.60938-1.2188 0.046875-0.09375 0.09375-0.14062 0.09375-0.23438 0.42188-1.0312 0.79688-2.1094 1.0781-3.1875l21.562-88.359c72.375 24.328 138.52 37.641 181.13 44.531 30.281 4.7812 55.359 27 63.75 56.438zm-621.14-412.03-40.969 17.016c-10.312 4.2656-15.188 16.125-10.922 26.438 3.2344 7.7812 10.734 12.469 18.656 12.469 2.5781 0 5.2031-0.51562 7.7344-1.5469l41.906-17.391c7.4062 14.672 15.75 28.922 24.891 42.797l-35.016 21.609c-9.5156 5.8594-12.422 18.328-6.5625 27.797 3.8438 6.1875 10.453 9.6094 17.203 9.6094 3.6094 0 7.3125-0.98438 10.594-3l37.734-23.297c11.297 14.016 23.578 27.562 36.844 40.641l-28.078 27.281c-8.0156 7.7812-8.2031 20.578-0.42188 28.594 3.9844 4.0781 9.2344 6.1406 14.484 6.1406 5.0625 0 10.172-1.9219 14.062-5.7188l29.906-29.062c13.828 11.625 28.453 22.781 43.969 33.469l-21.797 27.234c-6.9844 8.7188-5.5781 21.422 3.1406 28.406 3.7031 3 8.2031 4.4531 12.609 4.4531 5.9062 0 11.812-2.5781 15.797-7.5938l24.375-30.469c4.2188 2.5312 8.5312 5.0625 12.844 7.5469 12.703 7.2656 25.547 14.109 38.484 20.531l-19.125 29.812c-6.0469 9.375-3.3281 21.891 6.0938 27.938 3.375 2.1562 7.1719 3.1875 10.922 3.1875 6.6562 0 13.172-3.2812 17.016-9.2812l22.172-34.5c13.172 5.7656 26.391 11.156 39.469 16.172l-17.578 72.141c-35.156-10.969-113.11-39.188-192.05-93.984-61.688-42.844-111.98-93.328-149.44-150.14-42.797-64.875-69-138.42-77.953-218.81h74.531c4.7344 32.484 12.891 63.75 24.469 93.516zm-337.69 204.52c12.562-61.594 24.375-119.81 24.375-214.22v-83.859h173.58c9.2344 88.828 37.922 170.11 85.359 241.78 40.5 61.172 94.594 115.41 160.82 161.16 54.609 37.734 108 63.328 148.97 79.781-15.188 3.8438-31.828 8.625-49.312 14.578-87.141 29.531-155.11 74.391-197.34 130.13l-128.34-9.75c-7.5938-19.031-24.516-56.859-52.969-97.359-49.125-69.891-111.38-116.95-180.98-137.11 4.9688-31.781 10.547-59.062 15.844-85.125zm-21.422 125.63c58.594 18.328 109.97 58.266 152.86 118.92 19.031 26.906 32.531 52.828 41.203 71.625l-204.28-15.516c0.5625-72.656 4.5938-128.68 10.219-175.03zm1034 232.22c0 39.047-24.797 73.781-61.688 86.531-73.594 25.406-189.47 57.094-323.72 63.984-105.09 5.3906-211.55-14.953-307.78-58.781l-21.469-9.7969c-4.9219-2.25-10.547-2.4375-15.609-0.46875-5.0625 1.9219-9.1406 5.8594-11.297 10.828l-14.25 32.719h-245.06c-38.766 0-70.266-31.547-70.266-70.266v-72.984h5.9062l254.72 19.312h0.32813l152.21 11.531h0.28125c27.844 1.875 55.688 2.8594 83.531 2.8594 106.59 0 212.58-13.922 315.98-41.531l239.68-63.984h18.562z" fill="#780003"/>
</svg>
