<?xml version="1.0" encoding="UTF-8"?>
<svg width="1200pt" height="1200pt" version="1.1" viewBox="0 0 1200 1200" xmlns="http://www.w3.org/2000/svg">
 <path d="m1099.4 840.65h-1065.5c-13.801 0-25-11.25-25-25v-314.55c0-97.949 56.949-132.7 105.75-132.7 36.352 0 73.949 18.648 100.75 49.699 26.699 31.148 69.949 37.699 101.5 37.699 85.398 0 184.55-45.602 223.6-88.301 6.9492-7.5 17.699-10.051 27.25-6.5 114.7 43.398 474.15 210.35 556.15 254.5 42.699 23 65.949 68.5 67.25 131.7 0.5 24.301-9.1016 48.398-26.199 65.898-17.301 17.5-41.102 27.551-65.551 27.551zm-1040.5-50h1040.6c11.102 0 21.898-4.5508 29.75-12.551 7.75-7.9492 12.148-18.852 11.852-29.949-0.89844-44.801-14.648-74.5-40.852-88.602-77.898-41.949-408.45-195.7-535.25-246-52.148 47.199-153.15 92.25-248.05 92.25-60.301 0-108.5-19.051-139.45-55.102-17.449-20.25-40.898-32.352-62.852-32.352-34.898 0-55.75 30.949-55.75 82.699l0.050782 289.6z" fill="#780003"/>
 <path d="m58.898 690.65h1100v50h-1100z" fill="#780003"/>
 <path d="m508.9 740.65c-3.5 0-7.0508-0.80078-10.398-2.3008-12.551-5.75-18.051-20.602-12.25-33.148l136.05-295.8c5.75-12.602 20.602-18.148 33.199-12.25 12.5 5.75 18 20.602 12.199 33.148l-136.05 295.8c-4.25 9.1484-13.301 14.551-22.75 14.551z" fill="#780003"/>
 <path d="m608.9 740.65c-3.5508 0-7.1992-0.80078-10.602-2.3984-12.5-5.8008-17.852-20.75-12-33.25l121.55-258.2c5.8516-12.449 20.699-17.75 33.301-11.898 12.5 5.8516 17.801 20.699 11.949 33.199l-121.5 258.2c-4.3516 9.0508-13.352 14.352-22.699 14.352z" fill="#780003"/>
 <path d="m708.9 740.65c-3.3984 0-6.9492-0.69922-10.25-2.1992-12.551-5.6016-18.148-20.5-12.5-33.051l84.801-188.2c5.6992-12.602 20.449-18.25 33.051-12.602 12.602 5.6016 18.25 20.5 12.5 33.102l-84.75 188.2c-4.1992 9.25-13.398 14.75-22.852 14.75z" fill="#780003"/>
</svg>
