<?xml version="1.0" encoding="UTF-8"?>
<svg width="1200pt" height="1200pt" version="1.1" viewBox="0 0 1200 1200" xmlns="http://www.w3.org/2000/svg">
 <path d="m1007.8 94.02h-860.91c-47.902 0-86.879 39.238-86.879 87.48v593.51c0 48.238 38.977 87.469 86.879 87.469h845.86l15.266 0.023438c60.254 0.097656 109.25 49.57 109.25 110.36 0 60.863-49.105 110.36-109.45 110.36h-681.13l0.097657-0.81641c-52.176-6.5156-92.004-49.738-95.543-102.02h537.28v-22.738h-559.82v15.215h-0.52734c0 67.078 49.777 123.86 115.81 132.1l1.2734-10.285v11.293h683.38v-0.023438c72.535-0.46875 131.38-59.977 131.38-133.08v-745.71c0-73.406-59.293-133.13-132.21-133.13zm-615.5 22.742v722.99l-158.51-0.003906v-722.98zm-309.54 658.25v-593.51c0-35.699 28.777-64.738 64.152-64.738h64.164v722.99l-64.176-0.003906c-35.363 0-64.141-29.039-64.141-64.738zm925.92 64.777v-0.046875h-0.64844-0.22656l-12.746-0.003906h-580.02v-722.97h592.77c60.371 0 109.48 49.512 109.48 110.38v671.18c-23.641-35.09-63.492-58.25-108.6-58.535z" fill="#780003"/>
</svg>
