<?xml version="1.0" encoding="UTF-8"?>
<svg width="1200pt" height="1200pt" version="1.1" viewBox="0 0 1200 1200" xmlns="http://www.w3.org/2000/svg">
 <path d="m493.78 414.84c-4.6875 0-9.2812-1.125-13.406-3.2344-1.875-0.9375-3.6562-2.0156-5.4375-3.1406-0.42188-0.1875-3.6094-1.3594-13.688-1.2188v0.046875c-5.1094 0.09375-10.219 0.5625-15.281 1.4531-23.719 4.0312-100.08 4.0312-123.74 0-5.0625-0.89062-10.172-1.3594-15.281-1.4531-10.078-0.14062-13.312 1.0312-13.688 1.2188v-0.046875c-1.7812 1.125-3.5625 2.2031-5.4375 3.1406-10.688 5.4844-23.625 3.8906-32.719-3.9844-7.7812-6.6094-10.594-17.344-7.0781-26.859l0.14062-0.375c0.046875-0.1875 0.09375-0.28125 0.1875-0.46875s0.23438-0.5625 0.32812-0.84375c0.28125-0.70312 2.9531-7.3594 0.1875-16.734-1.8281-6.1406-2.1094-29.719-2.1094-43.219l0.046875-3.5156c0-13.5 0.28125-37.125 2.1094-43.266 2.7656-9.375 0.09375-16.031-0.23438-16.781l-0.32812-0.79688-0.28125-0.70312v-0.046875c-3.6094-9.6094-0.75-20.391 7.0312-27 9.0938-7.875 22.031-9.4688 32.719-3.9844 1.875 0.9375 3.7031 1.9688 5.4375 3.1406 0.42188 0.1875 3.6094 1.3594 13.688 1.2188v-0.046875c5.1094-0.09375 10.219-0.5625 15.281-1.4531 23.719-4.0312 100.08-4.0312 123.74 0 5.0625 0.89062 10.172 1.3594 15.281 1.4531 10.078 0.1875 13.312-1.0312 13.688-1.2188v0.046875c1.7812-1.1719 3.5625-2.2031 5.4375-3.1406 10.688-5.4844 23.625-3.8906 32.719 3.9844 7.7812 6.5625 10.641 17.344 7.0781 26.859 0 0.09375-0.09375 0.23438-0.14062 0.42188v0.28125c-0.14062 0.32812-0.28125 0.70312-0.42188 1.0312-0.42188 0.9375-2.9062 7.5469-0.1875 16.688 1.8281 6.1406 2.1094 29.719 2.1094 43.219v3.5156c0 13.5-0.28125 37.078-2.1094 43.219-2.7188 9.1875-0.23438 15.75 0.1875 16.688 0.14062 0.32812 0.28125 0.70312 0.42188 1.0312l0.046875 0.14062v0.14062c0.09375 0.1875 0.14062 0.32812 0.1875 0.51562 3.4688 9.5156 0.75 19.781-7.125 26.766v-0.046875c-5.3438 4.7344-12.234 7.3594-19.359 7.3594zm-228.74-28.266-0.14062 0.375c-0.9375 2.625-0.09375 5.5312 2.1562 7.2188 3.4688 3 8.4844 3.5625 12.562 1.4531 1.2656-0.65625 2.4375-1.3594 3.6094-2.1094 3.1875-2.1094 8.7188-4.4531 23.906-4.2188h0.046875c6 0.09375 12.047 0.65625 18 1.7344 21.469 3.6094 96.281 3.6094 117.75 0h-0.046875c5.9531-1.0781 12-1.6406 18-1.7344 15.234-0.23438 20.766 2.1094 23.812 4.1719l0.14062 0.09375v-0.046875c1.1719 0.75 2.3906 1.4531 3.6094 2.1094 4.125 2.1094 9.0938 1.5469 12.609-1.4531 2.2031-1.6875 3.0469-4.5938 2.1094-7.2188l-0.1875-0.5625-0.09375-0.1875c-1.3125-3.0469-5.2969-14.203-0.9375-28.922 0.5625-2.4844 1.3594-15.938 1.3594-38.203v-3.4688c0-22.266-0.79688-35.719-1.3594-38.203-4.3125-14.719-0.375-25.875 0.9375-28.922l0.09375-0.1875 0.1875-0.46875c0.9375-2.625 0.09375-5.5312-2.1094-7.2188-3.5156-3-8.4844-3.5625-12.609-1.4531-2.2031 1.2188-3.6094 2.1094-3.6094 2.1094-3.1875 2.1094-8.7188 4.4531-23.906 4.2188-6.0469-0.09375-12.047-0.70312-18-1.7344-21.469-3.6094-96.281-3.6094-117.75 0-5.9531 1.0312-11.953 1.6406-18 1.7344-15.234 0.23438-20.719-2.1094-23.812-4.1719l-0.14062-0.09375c-1.1719-0.79688-2.3906-1.5-3.6094-2.1094-4.125-2.1094-9.0938-1.5469-12.609 1.4531-2.2031 1.6875-3.0938 4.5938-2.1094 7.2188l0.14062 0.375 0.14062 0.32812c1.3594 3.0938 5.3438 14.297 0.9375 29.062-0.5625 2.2969-1.3594 15.75-1.3594 38.156v3.5156c0 22.359 0.79688 35.812 1.3594 38.25 4.3594 14.672 0.375 25.828-0.98438 28.875z"/>
 <path d="m925.6 414.84c-4.6875 0-9.2812-1.125-13.406-3.2344-1.875-0.9375-3.6562-2.0156-5.3906-3.1406-0.42188-0.1875-3.6094-1.3594-13.688-1.2188l-0.046875 0.046875c-5.1094 0.09375-10.219 0.5625-15.281 1.4531-23.719 4.0312-100.03 4.0312-123.74 0-5.0625-0.89062-10.172-1.3594-15.281-1.4531-10.078-0.14062-13.312 1.0312-13.734 1.2188l0.046875-0.046875c-1.7812 1.125-3.5625 2.2031-5.3906 3.1406-10.734 5.4844-23.672 3.8906-32.766-3.9844-7.7812-6.5625-10.594-17.344-7.0781-26.859v-0.14062l0.28125-0.70312c0.09375-0.28125 0.23438-0.51562 0.32812-0.79688 0.32812-0.75 3-7.3594 0.23438-16.781-1.8281-6.1406-2.1094-29.719-2.1094-43.219v-3.5156c0-13.5 0.28125-37.125 2.1094-43.266 2.7656-9.375 0.09375-16.031-0.1875-16.781-0.14062-0.28125-0.23438-0.5625-0.32812-0.79688l-0.1875-0.46875v-0.14062s-0.046875-0.1875-0.09375-0.23438l-0.046875-0.046875c-3.5156-9.5156-0.70312-20.297 7.0781-26.859 9.0938-7.875 22.031-9.4688 32.766-3.9844 1.8281 0.9375 3.6562 1.9688 5.3906 3.1406 0.42188 0.1875 3.6094 1.3594 13.688 1.2188v-0.046875c5.1094-0.09375 10.219-0.5625 15.281-1.4531 23.719-4.0312 100.08-4.0312 123.74 0 5.0625 0.89062 10.172 1.3594 15.281 1.4531 10.125 0.1875 13.312-1.0312 13.734-1.2188v0.046875c1.7344-1.1719 3.5156-2.2031 5.3906-3.1406 10.688-5.4844 23.672-3.8906 32.719 3.9844 7.7812 6.5625 10.641 17.344 7.125 26.859l-0.1875 0.46875v0.14062c-0.14062 0.42188-0.28125 0.75-0.46875 1.125-0.42188 0.9375-2.9062 7.5469-0.1875 16.688 1.8281 6.1406 2.1094 29.719 2.1094 43.219v3.5156c0 13.5-0.28125 37.078-2.1094 43.219-2.7188 9.1875-0.23438 15.75 0.1875 16.688 0.14062 0.32812 0.28125 0.70312 0.42188 1.0312l0.09375 0.23438c0.09375 0.1875 0.14062 0.375 0.1875 0.5625v-0.046875c3.5156 9.5156 0.65625 20.203-7.125 26.766-5.3438 4.7344-12.234 7.3594-19.359 7.3594zm-228.74-28.266-0.1875 0.46875h0.046875c-0.9375 2.5781-0.046875 5.4375 2.1562 7.0781 3.4688 3 8.4844 3.6094 12.562 1.4531 1.2656-0.60938 2.4375-1.3125 3.6094-2.1094 3.1875-2.1094 8.7188-4.4531 23.906-4.2188 6.0469 0.14062 12.094 0.70312 18 1.7344 21.469 3.6094 96.281 3.6094 117.75 0 5.9531-1.0312 12-1.5938 18-1.7344 15.281-0.23438 20.719 2.1094 23.812 4.1719l0.09375 0.09375 0.046875-0.046875c1.1719 0.79688 2.3438 1.5 3.6094 2.1094 4.0781 2.1562 9.0938 1.5469 12.562-1.4531 2.25-1.6875 3.0938-4.5938 2.1562-7.2188l-0.23438-0.5625-0.09375-0.1875c-1.3125-3.0469-5.2969-14.203-0.9375-28.922 0.5625-2.4844 1.3594-15.938 1.3594-38.203v-3.4219c0-22.266-0.79688-35.719-1.3594-38.203-4.3594-14.719-0.375-25.875 0.9375-28.922l0.09375-0.1875 0.1875-0.42188v-0.046875c0.98438-2.625 0.14062-5.5781-2.1094-7.2656-3.4688-2.9531-8.3438-3.5156-12.422-1.5-2.2031 1.2188-3.6094 2.1094-3.6094 2.1094-3.1875 2.1094-8.7188 4.4531-23.906 4.2188-6.0469-0.09375-12.047-0.65625-18-1.6875-21.469-3.6094-96.281-3.6094-117.75 0-5.9531 1.0312-11.953 1.5938-18 1.6875-15.234 0.23438-20.719-2.1094-23.812-4.1719l-0.09375-0.09375-0.046875 0.046875c-1.125-0.75-2.3438-1.4531-3.5625-2.1094-4.125-2.1094-9.0938-1.5-12.609 1.5-2.2031 1.6406-3.0469 4.5-2.1562 7.125l0.14062 0.42188 0.14062 0.32812c1.3125 3.0938 5.2969 14.25 0.9375 29.016-0.5625 2.2969-1.3594 15.75-1.3594 38.156v3.5156c0 22.359 0.79688 35.812 1.4062 38.25 4.3594 14.672 0.32812 25.828-0.98438 28.875z"/>
 <path d="m974.29 1067.6h-741.24c-43.594-0.046875-78.891-35.344-78.938-78.938v-495.37c0-4.9688 4.0312-9 9-9s9 4.0312 9 9v495.37c0 33.656 27.281 60.938 60.938 60.938h741.24c33.656 0 60.938-27.281 60.984-60.938v-454.13c0-4.9688 4.0312-9 9-9s9 4.0312 9 9v454.13c-0.046875 43.594-35.391 78.891-78.984 78.938z"/>
 <path d="m459 502.26h-287.53c-33.375-0.046875-60.422-27.094-60.469-60.469v-251.11c0.046875-32.156 26.109-58.219 58.266-58.266h861.52c32.156 0.046876 58.219 26.109 58.266 58.266v251.11c-0.046875 21.422-11.391 41.25-29.812 52.125-4.3125 2.5312-9.7969 1.125-12.328-3.1875-2.5312-4.2656-1.0781-9.7969 3.1875-12.328 12.984-7.6406 20.953-21.562 20.953-36.609v-251.11c0-22.266-18-40.266-40.266-40.266h-861.52c-22.219 0-40.219 18-40.266 40.266v251.11c0.046875 23.438 19.031 42.422 42.469 42.469h287.53c4.9688 0 9 4.0312 9 9s-4.0312 9-9 9z"/>
 <path d="m1044.3 966c-38.062 0-57.422-6-76.125-11.859-18.234-5.6719-35.391-11.062-70.781-11.062s-52.547 5.3906-70.781 11.062c-18.703 5.8594-38.016 11.859-76.125 11.859s-57.422-6-76.125-11.859c-18.188-5.6719-35.391-11.062-70.781-11.062s-52.547 5.3906-70.734 11.062c-18.562 5.8594-37.922 11.859-75.984 11.859-38.109 0-57.422-6-76.125-11.859-18.188-5.6719-35.391-11.062-70.781-11.062s-52.547 5.3906-70.734 11.062c-18.703 5.8594-38.016 11.859-76.125 11.859-5.0156 0-9-4.0312-9-9s3.9844-9 9-9c35.344 0 52.547-5.3906 70.781-11.062 18.703-5.8594 38.016-11.859 76.125-11.859s57.422 6 76.125 11.859c18.234 5.6719 35.391 11.062 70.781 11.062s52.547-5.3906 70.781-11.062c18.703-5.8594 38.016-11.859 76.125-11.859s57.422 6 76.125 11.859c18.234 5.6719 35.391 11.062 70.781 11.062s52.547-5.3906 70.734-11.062c18.703-5.8594 38.016-11.859 76.125-11.859s57.422 6 76.125 11.859c18.188 5.6719 35.391 11.062 70.781 11.062 4.9688 0 9 4.0312 9 9s-4.0312 9-9 9z"/>
 <path d="m1044.3 852.94c-38.062 0-57.422-6-76.125-11.859-18.234-5.6719-35.391-11.062-70.781-11.062s-52.547 5.3906-70.781 11.062c-18.703 5.8594-38.016 11.859-76.125 11.859s-57.422-6-76.125-11.859c-18.188-5.6719-35.391-11.062-70.781-11.062s-52.547 5.3906-70.734 11.062c-18.703 5.8594-38.016 11.859-76.125 11.859s-57.422-6-76.125-11.859c-18.188-5.6719-35.391-11.062-70.781-11.062s-52.547 5.3906-70.734 11.062c-18.703 5.8594-38.016 11.859-76.125 11.859h-0.046875c-4.9688 0-9-4.0312-9-9s4.0312-9 9-9c35.344 0 52.547-5.3906 70.781-11.062 18.703-5.8594 38.016-11.859 76.125-11.859s57.422 6 76.125 11.859c18.234 5.6719 35.391 11.062 70.781 11.062s52.547-5.3906 70.781-11.062c18.703-5.8594 38.016-11.859 76.125-11.859s57.422 6 76.125 11.859c18.234 5.6719 35.391 11.062 70.781 11.062s52.547-5.3906 70.734-11.062c18.703-5.8594 38.016-11.859 76.125-11.859s57.422 6 76.125 11.859c18.188 5.6719 35.391 11.062 70.781 11.062h0.046875c4.9688 0 9 4.0312 9 9s-4.0312 9-9 9z"/>
 <path d="m163.13 739.87c-4.9688 0-9-4.0312-9-9s4.0312-9 9-9c35.344 0 52.547-5.3906 70.781-11.062 9.375-3.0938 18.891-5.6719 28.5-7.6875 4.8281-0.79688 9.375 2.3438 10.312 7.125 0.9375 4.7344-2.0625 9.4219-6.75 10.5-9.0469 1.9219-17.953 4.3125-26.672 7.2188-18.75 5.8594-38.109 11.906-76.172 11.906z"/>
 <path d="m1044.3 739.87c-38.109 0-57.422-6-76.125-11.859-18.188-5.6719-35.391-11.062-70.734-11.062s-52.547 5.3906-70.781 11.062c-18.703 5.8594-38.016 11.859-76.125 11.859s-57.422-6-76.125-11.859c-18.188-5.6719-35.391-11.062-70.734-11.062s-52.547 5.3906-70.781 11.062c-18.703 5.8594-38.016 11.859-76.125 11.859h-3.1875c-2.3906 0-4.6406-0.98438-6.3281-2.6719s-2.625-3.9844-2.625-6.375c0.046875-4.9688 4.125-9 9.0938-8.9531h3.0469c35.344 0 52.547-5.3906 70.734-11.062 18.703-5.8594 38.016-11.859 76.125-11.859s57.422 6 76.125 11.859c18.188 5.6719 35.391 11.062 70.781 11.062s52.547-5.3906 70.734-11.062c18.703-5.8594 38.016-11.859 76.125-11.859s57.422 6 76.125 11.859c18.188 5.6719 35.391 11.062 70.781 11.062 4.9688 0 9 4.0312 9 9s-4.0312 9-9 9z"/>
 <path d="m1044.3 626.81c-38.109 0-57.422-6-76.125-11.859-18.188-5.6719-35.391-11.062-70.734-11.062s-52.547 5.3906-70.781 11.062c-18.703 5.8594-38.016 11.859-76.125 11.859-34.172 0-53.625-5.0156-69.188-9.75-4.7812-1.4531-7.4531-6.4688-6-11.25 1.4531-4.7344 6.4688-7.4062 11.25-6 14.953 4.5469 32.203 8.9531 63.938 8.9531 35.344 0 52.547-5.3906 70.734-11.062 18.703-5.8594 38.016-11.859 76.125-11.859s57.422 6 76.125 11.859c18.188 5.6719 35.391 11.062 70.781 11.062v0.046875c4.9688 0 9 4.0312 9 9s-4.0312 9-9 9z"/>
 <path d="m356.44 810.37c-1.5938 0-3.1875-0.09375-4.7812-0.23438-47.578-4.4062-86.391-75.609-97.219-97.359-1.1719-2.2969-2.8125-4.3125-4.7812-6-13.5-11.812-27.703-16.969-42.281-15.328-15.469 1.7344-30.891-2.7656-41.297-12-7.7344-6.8906-12-15.891-12-25.312v-19.219c0.14062-9 3.8906-17.531 10.359-23.812 75.188-75.891 226.78-126.47 450.52-150.32 173.63-18.469 338.34-15.094 401.11-12.75 16.734 0.60938 31.875 8.4844 39.516 20.531 9.6094 15.141 13.828 30.422 12.703 45.375-1.5 18.844-20.156 33.984-43.5 35.25-149.63 7.875-294 42.891-417.42 101.16-72.562 34.266-138.52 76.547-195.98 125.68v-0.046875c-1.125 0.9375-2.1562 2.0156-3.0469 3.1875-15.609 20.719-33.047 31.219-51.891 31.219zm-143.58-137.26c17.109 0 33.422 6.75 48.703 20.109 3.75 3.1875 6.8438 7.125 9.0469 11.578 6.9375 13.969 43.406 83.812 82.734 87.422 14.203 1.3125 27.469-6.5156 40.547-23.906 1.6875-2.2031 3.6094-4.2188 5.7188-6 58.688-50.156 126-93.328 200.02-128.26 125.58-59.25 272.26-94.781 424.18-102.84 14.109-0.75 25.781-8.9062 26.531-18.609 0.84375-11.016-2.5312-22.594-9.9844-34.406-4.4062-7.0312-14.203-11.766-24.938-12.188-62.391-2.2969-226.08-5.6719-398.53 12.703-98.484 10.453-183.94 26.484-254.02 47.531-84.141 25.312-146.63 58.125-185.58 97.453-3.375 3.4219-5.1562 7.2656-5.1562 11.156v19.219c0 5.4375 3.2344 9.4688 6 11.906 6.5625 5.8594 16.969 8.7188 27.281 7.5938v-0.046875c2.4844-0.28125 4.9688-0.42188 7.4531-0.42188z"/>
</svg>
