<?xml version="1.0" encoding="UTF-8"?>
<svg width="1200pt" height="1200pt" version="1.1" viewBox="0 0 1200 1200" xmlns="http://www.w3.org/2000/svg">
 <path d="m1110.3 121.87h-1020.7c-6.2344 0-11.859 2.4844-15.891 6.5156l-0.09375 0.09375c-4.0312 4.0312-6.5156 9.6562-6.5156 15.891 0 6.2812 2.5312 11.859 6.5156 15.891l0.09375 0.09375c4.0312 4.0312 9.6562 6.5156 15.891 6.5156h1020.6c6.1406 0 11.812-2.5781 15.891-6.6562s6.6094-9.7031 6.6094-15.891c0-6.1406-2.5781-11.812-6.6094-15.891-4.125-4.125-9.7031-6.6094-15.891-6.6094zm-738.52 956.21h456.37v-156.74c0-95.156 50.953-185.86 79.266-228.98-72-43.406-257.16-182.06-280.74-470.26h-53.484c-23.531 288.24-208.74 426.79-280.74 470.26 28.312 43.125 79.266 133.87 79.266 228.98v156.74zm483.94 55.125h-695.21c-15.234 0-27.562-12.328-27.562-27.562v-883.6h-43.359c-21.188 0-40.594-8.7188-54.703-22.734l-0.1875-0.1875c-14.062-14.109-22.781-33.469-22.781-54.75 0-21.188 8.7188-40.594 22.734-54.703l0.1875-0.1875c14.109-14.062 33.516-22.781 54.75-22.781h1020.7c21.375 0 40.781 8.7656 54.844 22.781 14.062 14.062 22.781 33.469 22.781 54.844s-8.7656 40.781-22.781 54.844c-14.062 14.062-33.469 22.781-54.844 22.781h-43.359v883.6c0 15.234-12.328 27.562-27.562 27.562h-183.71zm91.406-481.26 64.734-35.109v-394.74h-330c24.75 280.36 215.11 402.42 265.22 429.89zm64.734 27.562-46.125 24.984c-16.078 21.75-82.453 117.56-82.453 216.79v156.74h128.58v-398.58zm-777.66 24.984-46.125-24.984v398.58h128.58v-156.74c0-99.234-66.375-195.1-82.453-216.79zm-46.125-87.703 64.734 35.109c50.109-27.469 240.47-149.53 265.22-429.89h-330v394.74z" fill="#780003"/>
</svg>
