<?xml version="1.0" encoding="UTF-8"?>
<svg width="1200pt" height="1200pt" version="1.1" viewBox="0 0 1200 1200" xmlns="http://www.w3.org/2000/svg">
 <path d="m388.97 1158.9c2.7188 8.3438 10.828 13.688 19.594 12.891 0.42188-0.046875 47.016-3.5156 75.75 23.203h-0.046875c5.5312 5.1562 13.594 6.4688 20.484 3.375 6.8438-3.0938 11.203-10.031 11.062-17.578-0.046875-31.875 2.2031-63.75 6.75-95.344 10.219 47.016 26.062 95.25 49.5 111.28 7.0312 4.8281 16.406 4.2656 22.875-1.3125 54.75-41.672 127.5-51.141 191.11-24.844 4.8281 1.9219 10.219 1.7344 14.953-0.46875 4.6875-2.2031 8.25-6.2812 9.8438-11.203 73.594-228.37 7.1719-440.16-38.953-546.05h0.046875c-25.547-57.844-38.859-120.32-39.094-183.52-0.23438-8.25 0-16.547 0.60938-24.797 1.875-13.359 18.188-39.141 32.531-61.875 17.438-27.609 33.891-53.672 37.312-74.344 7.5938-45.984-11.953-89.625-29.766-122.53-26.156-48.656-56.297-95.016-90.188-138.61-5.0156-6.375-13.5-8.8125-21.141-6.0469-7.5938 2.7188-12.609 10.078-12.375 18.141 1.9219 67.5-6.0469 185.9-35.531 216.24-2.625 3.3281-6.5625 5.3438-10.781 5.4375h-6.75c-4.2188-0.09375-8.1562-2.1094-10.781-5.4375-29.484-30.328-37.406-148.69-35.484-216.24 0.1875-8.0625-4.7812-15.422-12.422-18.141-7.5938-2.7656-16.125-0.32813-21.094 6.0469-33.891 43.594-64.078 89.953-90.188 138.61-17.859 32.906-37.359 76.547-29.766 122.53 3.4219 20.672 19.875 46.781 37.312 74.391 14.344 22.734 30.609 48.516 32.531 61.875l-0.046875-0.046875c0.65625 8.25 0.84375 16.547 0.65625 24.797-0.23438 63.188-13.547 125.68-39.094 183.52-46.219 106.12-112.83 318.19-39.422 546.05zm77.062-836.21c-13.969-22.172-29.859-47.297-32.016-60.469-5.7188-34.734 10.734-70.922 25.734-98.531v-0.046876c16.359-30.281 34.312-59.672 53.672-88.125 2.3438 60.75 11.672 151.18 45.656 186.14 9.7031 10.547 23.297 16.594 37.594 16.781h6.9844c14.297-0.1875 27.891-6.2344 37.547-16.781 33.984-34.969 43.359-125.39 45.656-186.14 19.406 28.453 37.312 57.844 53.672 88.125 15 27.609 31.453 63.797 25.734 98.531-2.1562 13.172-18.047 38.297-32.016 60.469-13.312 19.406-24.703 40.078-33.938 61.734h-200.29c-9.2812-21.656-20.672-42.328-33.984-61.734zm38.906 99.234h190.36c0 2.25-0.046875 4.7344-0.046875 7.4531 0 10.031 0.42188 20.016 1.0781 30.047l-192.37-0.046874c0.60938-9.9844 1.0312-20.016 1.0312-30.047v-7.4531zm-4.9219 75h43.641v56.25l0.046875-0.046874c0 10.359 8.3906 18.75 18.75 18.75s18.75-8.3906 18.75-18.75v-56.25h37.5v225h0.046875c0 10.359 8.3906 18.75 18.75 18.75s18.75-8.3906 18.75-18.75v-225h44.016c6.4688 45.141 18.984 89.156 37.266 130.92 42.75 98.156 103.83 291.52 43.266 501.1-66-20.953-137.95-10.875-195.71 27.328-17.672-28.922-34.219-107.95-40.828-175.78-0.84375-8.9062-7.9219-15.984-16.828-16.875-0.60938-0.046875-1.2656-0.09375-1.875-0.09375l0.046875 0.046875c-8.2969 0-15.562 5.3906-17.953 13.266-16.312 55.5-25.922 112.73-28.688 170.48-18.422-8.0156-38.25-12.469-58.359-13.031-63-211.13-1.0312-407.21 42.188-506.44 18.281-41.766 30.797-85.781 37.266-130.92z" fill="#780003"/>
</svg>
