<?xml version="1.0" encoding="UTF-8"?>
<svg width="1200pt" height="1200pt" version="1.1" viewBox="0 0 1200 1200" xmlns="http://www.w3.org/2000/svg">
 <path d="m597.66 883.31h-464.34c-27.562 0-50.016-22.406-50.016-50.016l0.046874-699.98c0-27.562 22.406-50.016 50.016-50.016h666.66c27.562 0 50.016 22.406 50.016 50.016v687.84c0 9.1875 7.4531 16.688 16.688 16.688 9.1875 0 16.688-7.4531 16.688-16.688l-0.09375-687.84c0-45.938-37.406-83.344-83.344-83.344l-666.66 0.046875c-45.938 0-83.344 37.406-83.344 83.344v699.98c0 40.219 28.688 73.922 66.656 81.656v18.328c0 27.562 22.406 50.016 50.016 50.016h33.328c27.562 0 50.016-22.406 50.016-50.016v-16.688h347.68c9.1875 0 16.688-7.4531 16.688-16.688 0-9.1875-7.4531-16.688-16.688-16.688zm-381 50.016c0 9.1875-7.5 16.688-16.688 16.688h-33.328c-9.1875 0-16.688-7.5-16.688-16.688v-16.688h66.656v16.688z" fill="#780003"/>
 <path d="m500.02 383.34c9.1875 0 16.688-7.4531 16.688-16.688 0-9.1875-7.4531-16.688-16.688-16.688-110.3 0-200.02 89.719-200.02 200.02 0 9.1875 7.4531 16.688 16.688 16.688 9.1875 0 16.688-7.4531 16.688-16.688 0-91.922 74.766-166.69 166.69-166.69z" fill="#780003"/>
 <path d="m233.34 633.32h31.266c34.453 96.938 126.79 166.69 235.4 166.69 137.86 0 249.98-112.17 249.98-249.98 0-137.86-112.17-249.98-249.98-249.98-108.61 0-201 69.75-235.4 166.69h-31.266c-27.562 0-50.016 22.406-50.016 50.016v66.656c0 27.562 22.406 50.016 50.016 50.016zm266.68-300c119.48 0 216.66 97.172 216.66 216.66s-97.172 216.66-216.66 216.66-216.66-97.172-216.66-216.66 97.172-216.66 216.66-216.66zm-283.36 183.32c0-9.1875 7.5-16.688 16.688-16.688h21.703c-3.2812 16.172-5.0625 32.859-5.0625 50.016 0 17.109 1.7344 33.844 5.0625 50.016h-21.703c-9.1875 0-16.688-7.5-16.688-16.688z" fill="#780003"/>
 <path d="m316.69 216.66c27.562 0 50.016-22.406 50.016-50.016 0-27.562-22.406-50.016-50.016-50.016h-133.31c-27.562 0-50.016 22.406-50.016 50.016 0 27.562 22.406 50.016 50.016 50.016zm-150-49.969c0-9.1875 7.5-16.688 16.688-16.688h133.31c9.1875 0 16.688 7.5 16.688 16.688s-7.5 16.688-16.688 16.688h-133.31c-9.1875 0-16.688-7.5-16.688-16.688z" fill="#780003"/>
 <path d="m516.66 166.69c0-27.562-22.406-50.016-50.016-50.016-27.562 0-50.016 22.406-50.016 50.016 0 27.562 22.406 50.016 50.016 50.016 27.562 0 50.016-22.406 50.016-50.016zm-66.656 0c0-9.1875 7.5-16.688 16.688-16.688s16.688 7.5 16.688 16.688-7.5 16.688-16.688 16.688-16.688-7.5-16.688-16.688z" fill="#780003"/>
 <path d="m666.66 166.69c0-27.562-22.406-50.016-50.016-50.016-27.562 0-50.016 22.406-50.016 50.016 0 27.562 22.406 50.016 50.016 50.016 27.562 0 50.016-22.406 50.016-50.016zm-66.656 0c0-9.1875 7.5-16.688 16.688-16.688s16.688 7.5 16.688 16.688-7.5 16.688-16.688 16.688-16.688-7.5-16.688-16.688z" fill="#780003"/>
 <path d="m1135.8 783.52c-9.0469-1.4062-17.578 4.9219-18.938 14.016l-41.484 276.56c-3.6562 24.281-24.891 42.609-49.453 42.609h-285.19c-24.562 0-45.797-18.328-49.453-42.609l-41.484-276.56c-1.3594-9.0938-9.9375-15.422-18.938-14.016-9.0938 1.3594-15.375 9.8438-14.016 18.938l41.484 276.56c6.1875 41.109 40.828 70.969 82.406 70.969h285.19c41.578 0 76.266-29.859 82.406-70.969l41.484-276.56c1.3594-9.0938-4.9219-17.578-14.016-18.938z" fill="#780003"/>
 <path d="m838.22 871.55c-11.484 11.484-31.594 11.484-43.078 0-24.891-24.891-65.344-24.891-90.234 0-6.5156 6.5156-6.5156 17.062 0 23.578s17.062 6.5156 23.578 0c11.859-11.859 31.219-11.859 43.078 0 24.891 24.891 65.344 24.891 90.234 0 11.859-11.859 31.219-11.859 43.078 0 12.422 12.422 28.781 18.656 45.094 18.656 16.359 0 32.672-6.2344 45.094-18.656 11.859-11.859 31.219-11.859 43.078 0 6.5156 6.5156 17.062 6.5156 23.578 0s6.5156-17.062 0-23.578c-24.891-24.891-65.344-24.891-90.234 0-11.484 11.484-31.594 11.484-43.078 0-24.891-24.891-65.344-24.891-90.234 0z" fill="#780003"/>
</svg>
