<?xml version="1.0" encoding="UTF-8"?>
<svg width="1200pt" height="1200pt" version="1.1" viewBox="0 0 1200 1200" xmlns="http://www.w3.org/2000/svg">
 <path d="m276.47 1073.1h-14.062c-12.938 0-23.438-10.5-23.438-23.438v-899.72c0-12.938 10.5-23.438 23.438-23.438h14.062v-51.562c0-12.938 10.5-23.438 23.438-23.438s23.438 10.5 23.438 23.438v51.562h103.08v-51.562c0-12.938 10.5-23.438 23.438-23.438s23.438 10.5 23.438 23.438v51.562h103.08v-51.562c0-12.938 10.5-23.438 23.438-23.438s23.438 10.5 23.438 23.438v51.562h103.08v-51.562c0-12.938 10.5-23.438 23.438-23.438s23.438 10.5 23.438 23.438v51.562h103.08v-51.562c0-12.938 10.5-23.438 23.438-23.438s23.438 10.5 23.438 23.438v51.562h14.062c12.938 0 23.438 10.5 23.438 23.438v899.72c0 12.938-10.5 23.438-23.438 23.438h-14.062v51.562c0 12.938-10.5 23.438-23.438 23.438s-23.438-10.5-23.438-23.438v-51.562h-103.08v51.562c0 12.938-10.5 23.438-23.438 23.438s-23.438-10.5-23.438-23.438v-51.562h-103.08v51.562c0 12.938-10.5 23.438-23.438 23.438s-23.438-10.5-23.438-23.438v-51.562h-103.08v51.562c0 12.938-10.5 23.438-23.438 23.438s-23.438-10.5-23.438-23.438v-51.562h-103.08v51.562c0 12.938-10.5 23.438-23.438 23.438s-23.438-10.5-23.438-23.438zm23.438-899.72h-14.062v852.84h627.94v-852.84zm585.74 51.562v749.76c0 12.938-10.5 23.438-23.438 23.438h-524.81c-12.938 0-23.438-10.5-23.438-23.438v-749.76c0-12.938 10.5-23.438 23.438-23.438h524.81c12.938 0 23.438 10.5 23.438 23.438zm-46.875 23.438h-477.98v702.89h477.98zm-219.52 113.53 149.95 224.95c5.25 7.875 5.25 18.141 0 26.016l-149.95 224.95c-4.3594 6.5156-11.672 10.453-19.5 10.453-7.8281 0-15.141-3.9375-19.5-10.453l-149.95-224.95c-5.25-7.875-5.25-18.141 0-26.016l149.95-224.95c4.3594-6.5156 11.672-10.453 19.5-10.453 7.8281 0 15.141 3.9375 19.5 10.453zm-19.5 55.219-121.78 182.68 121.78 182.68 121.78-182.68z" fill-rule="evenodd"/>
</svg>
