<?xml version="1.0" encoding="UTF-8"?>
<svg width="1200pt" height="1200pt" version="1.1" viewBox="0 0 1200 1200" xmlns="http://www.w3.org/2000/svg">
 <path d="m1131 991.26-111.19-801.56c-0.65625-4.8281-3.8438-8.9062-8.3438-10.734l-231.24-94.922c-0.14062-0.046875-0.32812-0.14062-0.46875-0.1875l-31.688-13.031c-3.375-19.688-15.562-33.938-31.641-44.203-0.84375-0.70312-1.7812-1.2656-2.7656-1.7344-42.469-25.266-108.47-24.938-113.72-24.891-5.3438-0.046875-71.25-0.32812-113.67 24.844-0.98438 0.46875-1.9219 1.0312-2.8125 1.7344-16.078 10.266-28.266 24.516-31.641 44.203l-263.44 108.14c-4.5 1.8281-7.6875 5.9531-8.3438 10.734l-111.14 801.56c-0.5625 3.8906 0.65625 7.875 3.2344 10.828s6.3281 4.6875 10.312 4.6875h169.78c6.8906 0 12.703-5.1094 13.547-11.953l42.75-341.76 10.828 67.5-19.641 187.18v0.046875l-26.625 253.74c-0.60937 5.6719 2.3906 11.109 7.5 13.641 1.0312 0.51562 51.656 24.844 116.2 24.844 65.156 0 144.52-24.797 201.52-123.71 56.156 75.188 129.66 100.73 185.86 108.19 15.609 2.0625 30.609 2.9062 44.484 2.9062 50.484 0 86.719-10.781 88.641-11.391 6.2344-1.9219 10.266-7.9688 9.6094-14.484l-26.625-253.74v-0.046875l-19.641-187.18 10.828-67.5 42.703 341.72c0.84375 6.8438 6.6562 11.953 13.547 11.953h169.82c3.9375 0 7.6875-1.6875 10.312-4.6875 2.5781-2.9531 3.75-6.9375 3.2344-10.828zm-297.66-794.86-51.047 28.734c-3.9375 2.2031-6.5156 6.2344-6.8906 10.734s1.5 8.9062 5.0156 11.766l60.891 49.406c-21.891 39.375-106.17 187.78-193.55 302.53 53.859-159.24 95.484-410.02 100.78-499.08l17.672 7.2656 67.172 88.688zm-415.74 28.734-51.047-28.734 67.125-88.641 17.719-7.2656c5.4844 91.734 49.453 354.89 105.61 513-91.969-111.42-177.66-274.97-198.71-316.22l61.219-49.688c3.5156-2.8594 5.3906-7.2656 5.0156-11.766s-2.9531-8.5312-6.8906-10.734zm73.641-170.44 88.453 77.578-87.141 82.125c-9.7031-62.859-15-112.55-14.391-133.64 0.32812-10.688 5.3438-19.219 13.078-26.062zm108.28-27.422h0.60938c0.75-0.046875 47.953-0.09375 83.344 13.172l-83.531 73.266-83.531-73.266c34.219-12.844 79.547-13.219 83.109-13.219zm122.26 53.484c0.60938 21.141-4.6875 70.828-14.391 133.64l-87.141-82.125 88.453-77.578c7.7812 6.8438 12.797 15.375 13.078 26.062zm-121.82 69.891 41.625 39.234c-3.75 11.25-14.531 32.719-41.625 35.484-27.094-2.7656-37.875-24.281-41.625-35.484zm-1.125 102.14c0.375 0.046875 0.70312 0.046875 1.0781 0.046875s0.70312 0 1.0781-0.046875c2.1562-0.1875 4.2188-0.51562 6.2812-0.84375l33.328 277.64c-12.797 45.281-26.531 86.344-40.688 118.69-14.203-32.344-27.938-73.453-40.734-118.73l33.375-277.55c2.0625 0.32812 4.125 0.65625 6.2812 0.84375zm-61.688-42.891c5.8594 11.766 15.281 24 29.109 32.438l-25.828 215.06c-17.156-70.734-31.828-145.55-42.609-210.42zm122.34 247.6-25.828-215.11c13.828-8.4375 23.25-20.672 29.109-32.438l39.328 37.078c-10.781 64.875-25.5 139.74-42.656 210.47zm-325.69 386.63 86.719-5.2969v47.766l-92.016 7.7812zm-32.578 310.4 24.422-232.5 109.69-9.2812c7.0781-0.60938 12.516-6.5156 12.516-13.594v-74.812c0-3.75-1.5469-7.3594-4.3125-9.9375-2.7188-2.5781-6.4219-3.8906-10.172-3.7031l-96.656 5.9062 9.9844-95.016c0.14062-1.2188 0.09375-2.3906-0.09375-3.6094l-26.297-163.64v-0.28125l-26.297-146.63c-1.3125-7.4062-8.4375-12.375-15.844-11.016-7.4062 1.3125-12.375 8.4375-11.016 15.844l25.922 144.56-52.828 422.63h-142.08l107.86-778.26 177.98-73.031-48.656 64.266c-2.3906 3.1406-3.2812 7.1719-2.4844 11.016s3.2344 7.1719 6.6562 9.0938l47.203 26.531-54.141 43.969c-4.9219 4.0312-6.4688 10.922-3.6562 16.641 5.2969 10.781 127.97 258.28 251.26 380.06-14.297 15.609-22.266 35.578-22.406 56.531l-1.6875 242.16c-0.09375 16.031 3.6094 32.109 10.781 46.5 4.5469 9.1406 9.3281 17.719 14.25 25.875-88.453 169.13-241.74 119.44-279.94 103.73zm570.14-260.16-92.016-7.7812v-47.766l86.719 5.2969zm88.359 85.078-52.828-422.58 25.922-144.61c1.3125-7.4062-3.6094-14.531-11.016-15.844s-14.531 3.6094-15.844 11.016l-26.297 146.63v0.14062c0 0.046875 0 0.09375-0.046875 0.09375l-26.297 163.69c-0.1875 1.1719-0.23438 2.3906-0.09375 3.6094l9.9844 94.969-96.656-5.9062c-3.75-0.23438-7.4531 1.0781-10.172 3.7031-2.7656 2.5781-4.3125 6.1875-4.3125 9.9375v74.812c0 7.0781 5.4375 12.984 12.516 13.594l109.69 9.2812 24.234 230.53c-45.234 9.8906-220.36 35.109-307.18-139.78-5.25-10.594-8.0156-22.453-7.9219-34.172l1.6875-242.16c0.09375-14.672 5.8594-28.688 16.266-39.469 1.5938-1.6406 3.1875-3.3281 4.7812-5.0156 0.09375-0.046875 0.14062-0.046875 0.23438-0.09375s0.1875-0.14062 0.28125-0.1875c0.1875-0.09375 0.375-0.23438 0.5625-0.375 0.32812-0.23438 0.65625-0.42188 0.98438-0.65625 0.42188-0.32812 0.79688-0.65625 1.1719-1.0312 0.14062-0.14062 0.32812-0.28125 0.51562-0.42188 0.046875-0.046875 0.09375-0.046875 0.09375-0.09375 0.09375-0.09375 0.14062-0.23438 0.23438-0.32812 0.32812-0.375 0.60938-0.75 0.89062-1.1719 0.23438-0.32812 0.46875-0.70312 0.70312-1.0312 0.046875-0.09375 0.14062-0.23438 0.23438-0.32812 0.23438-0.42188 0.46875-0.89062 0.65625-1.3125 119.77-130.92 252.28-374.11 258-384.71 3.1406-5.7656 1.6875-12.984-3.375-17.109l-54.141-43.969 47.203-26.531c3.4219-1.9219 5.8594-5.25 6.6562-9.0938s-0.09375-7.875-2.4844-11.016l-48.656-64.266 177.98 73.031 107.95 778.26h-142.08z" fill="#780003"/>
</svg>
